<svg width="19" height="19" viewBox="0 0 19 19" fill="none" xmlns="http://www.w3.org/2000/svg">
<path d="M8.7085 3.16667H3.16683C2.7469 3.16667 2.34418 3.33348 2.04724 3.63042C1.75031 3.92735 1.5835 4.33008 1.5835 4.75V15.8333C1.5835 16.2533 1.75031 16.656 2.04724 16.9529C2.34418 17.2499 2.7469 17.4167 3.16683 17.4167H14.2502C14.6701 17.4167 15.0728 17.2499 15.3697 16.9529C15.6667 16.656 15.8335 16.2533 15.8335 15.8333V10.2917M14.646 1.97917C14.9609 1.66422 15.3881 1.48729 15.8335 1.48729C16.2789 1.48729 16.7061 1.66422 17.021 1.97917C17.3359 2.29411 17.5129 2.72127 17.5129 3.16667C17.5129 3.61207 17.3359 4.03922 17.021 4.35417L9.50016 11.875L6.3335 12.6667L7.12516 9.5L14.646 1.97917Z" stroke="#1E1E1E" stroke-width="2" stroke-linecap="round" stroke-linejoin="round"/>
</svg>
